<?xml version="1.0" encoding="utf-8"?>
<!-- Generator: Adobe Illustrator 18.1.1, SVG Export Plug-In . SVG Version: 6.00 Build 0)  -->
<svg version="1.1" id="Layer_1" xmlns="http://www.w3.org/2000/svg" xmlns:xlink="http://www.w3.org/1999/xlink" x="0px" y="0px"
	 viewBox="0 0 324 288" enable-background="new 0 0 324 288" xml:space="preserve">
<g>
	<path d="M162.8,64.2c0,0.4-0.1,0.9-0.1,1.3c-0.1,0.4-0.1,0.9-0.1,1.3c0,1.6,1,2.2,2.3,2.2h0.3v-0.9h-0.3c-0.9,0-1.3-0.5-1.3-1.4
		c0-0.4,0-0.8,0.1-1.2c0.1-0.4,0.1-0.8,0.1-1.2c0-1-0.4-1.6-1.2-1.7v0c0.7-0.2,1.2-0.7,1.2-1.7c0-0.4,0-0.8-0.1-1.2
		c-0.1-0.4-0.1-0.8-0.1-1.1c0-0.9,0.3-1.4,1.3-1.4h0.3v-0.9h-0.3c-1.4,0-2.3,0.6-2.3,2.1c0,0.4,0.1,0.9,0.1,1.3s0.1,0.9,0.1,1.3
		c0,0.6-0.2,1.2-1.3,1.2V63C162.6,63,162.8,63.7,162.8,64.2z"/>
	<path d="M171.3,67.4c1.3,0,2.3-0.3,2.8-0.5l-0.3-1.1c-0.6,0.3-1.4,0.4-2.3,0.4c-2.6,0-4.1-1.7-4.1-4.3c0-2.8,1.7-4.5,4.2-4.5
		c0.9,0,1.6,0.2,2.2,0.4l0.3-1.1c-0.4-0.2-1.2-0.5-2.6-0.5c-3.3,0-5.6,2.3-5.6,5.7C165.9,65.4,168.2,67.4,171.3,67.4z"/>
	<path d="M178.2,66.2c-1,0-1.9-0.3-2.5-0.7l-0.4,1.2c0.6,0.4,1.7,0.7,2.8,0.7c2.5,0,3.8-1.4,3.8-3.1c0-1.6-0.9-2.5-2.8-3.2
		c-1.5-0.6-2.1-1.1-2.1-2.1c0-0.7,0.6-1.6,2-1.6c1,0,1.7,0.3,2,0.5l0.4-1.1c-0.5-0.3-1.3-0.5-2.4-0.5c-2.1,0-3.5,1.2-3.5,2.9
		c0,1.5,1.1,2.4,2.8,3.1c1.5,0.6,2,1.1,2,2.1C180.4,65.4,179.6,66.2,178.2,66.2z"/>
	<path d="M186.1,66.2c-1,0-1.9-0.3-2.5-0.7l-0.4,1.2c0.6,0.4,1.7,0.7,2.8,0.7c2.5,0,3.8-1.4,3.8-3.1c0-1.6-0.9-2.5-2.8-3.2
		c-1.5-0.6-2.1-1.1-2.1-2.1c0-0.7,0.6-1.6,2-1.6c1,0,1.7,0.3,2,0.5l0.4-1.1c-0.5-0.3-1.3-0.5-2.4-0.5c-2.1,0-3.5,1.2-3.5,2.9
		c0,1.5,1.1,2.4,2.8,3.1c1.5,0.6,2,1.1,2,2.1C188.3,65.4,187.5,66.2,186.1,66.2z"/>
	<path d="M193.5,66.8c0-0.4-0.1-0.9-0.1-1.3c-0.1-0.4-0.1-0.9-0.1-1.3c0-0.5,0.2-1.2,1.3-1.2v-0.8c-1.1,0-1.3-0.6-1.3-1.2
		c0-0.4,0.1-0.9,0.1-1.3s0.1-0.9,0.1-1.3c0-1.5-1-2.1-2.3-2.1h-0.3v0.9h0.3c0.9,0,1.3,0.5,1.3,1.4c0,0.4-0.1,0.8-0.1,1.1
		c-0.1,0.4-0.1,0.8-0.1,1.2c0,1,0.4,1.5,1.2,1.7v0c-0.7,0.2-1.2,0.7-1.2,1.7c0,0.4,0.1,0.8,0.1,1.2c0,0.4,0.1,0.8,0.1,1.2
		c0,0.9-0.4,1.4-1.3,1.4h-0.3V69h0.3C192.5,69,193.5,68.4,193.5,66.8z"/>
	<path d="M147.7,133.7h60.7v-81h-60.7V133.7z M148.7,53.8h58.7v79h-58.7V53.8z"/>
	<polygon points="80.8,64.8 74.5,61.7 74.5,61.7 80.8,58.5 80.8,57.4 73.4,61.3 73.4,62.1 80.8,65.9 	"/>
	<polygon points="84.5,60.9 89.7,60.9 89.7,65.9 91.1,65.9 91.1,55.2 89.7,55.2 89.7,59.7 84.5,59.7 84.5,55.2 83.1,55.2 83.1,65.9 
		84.5,65.9 	"/>
	<polygon points="95.5,65.9 97,65.9 97,56.3 100.3,56.3 100.3,55.2 92.3,55.2 92.3,56.3 95.5,56.3 	"/>
	<path d="M102.8,61.3c0.1-1.6,0.2-3.4,0.2-4.8h0c0.3,1.3,0.7,2.7,1.2,4.2l1.7,5.1h1.1l1.9-5.2c0.5-1.5,1-2.8,1.4-4.1h0
		c0,1.3,0.1,3.2,0.2,4.7l0.3,4.7h1.4l-0.7-10.8h-1.8l-1.9,5.2c-0.5,1.4-0.9,2.5-1.1,3.6h0c-0.3-1.1-0.6-2.3-1.1-3.6l-1.8-5.2h-1.8
		l-0.8,10.8h1.3L102.8,61.3z"/>
	<polygon points="120.3,64.8 115.7,64.8 115.7,55.2 114.3,55.2 114.3,65.9 120.3,65.9 	"/>
	<polygon points="121.7,58.5 128,61.7 128,61.7 121.7,64.8 121.7,65.9 129.1,62.1 129.1,61.2 121.7,57.4 	"/>
	<path d="M70.4,133.7h60.7v-81H70.4V133.7z M71.4,53.7h58.7v79H71.4V53.7z"/>
	<rect x="152.7" y="73" width="50.7" height="3"/>
	<rect x="152.7" y="111.5" width="50.7" height="3"/>
	<rect x="152.7" y="79.5" width="50.7" height="3"/>
	<rect x="152.7" y="86" width="50.7" height="3"/>
	<rect x="152.7" y="92.5" width="50.7" height="3"/>
	<rect x="152.7" y="99" width="50.7" height="3"/>
	<rect x="152.7" y="105.5" width="50.7" height="3"/>
	<rect x="152.7" y="123.2" width="50.7" height="3"/>
	<rect x="152.7" y="117.2" width="50.7" height="3"/>
	<rect x="74.7" y="71" width="50.3" height="19.7"/>
	<rect x="74.7" y="94" width="22.7" height="33.5"/>
	<rect x="99.5" y="93.8" width="26.2" height="15.7"/>
	<rect x="99.7" y="111.7" width="26.2" height="15.7"/>
	<path d="M281.8,209.7c6-11.9,6-21.2,0-27.8c-16.1-17.7-73.1-10-114.1,8.7l-10.5-16.5L144.4,154h92c5.6,0,10.1-4.6,10.1-10.1V42.8
		c0-5.6-4.5-10.1-10.1-10.1H44.3c-5.6,0-10.1,4.5-10.1,10.1v101.1c0,5.6,4.6,10.1,10.1,10.1h92l-12.7,20.1l-16.8,26.4h33.5h33.5
		l-5.7-9c40.7-18.5,97-26.3,112.8-8.9c5.7,6.3,5.6,15.3-0.1,26.8c-0.2-0.1-0.5-0.2-0.7-0.3c-7.5-2-16.2,6.3-19.4,18.6
		s0.3,23.8,7.8,25.7s16.2-6.3,19.4-18.6C290.9,223.5,288.1,212.8,281.8,209.7z M53.4,132.9V53.7c0-5.6,4.6-10.1,10.1-10.1h153.8
		c5.6,0,10.1,4.5,10.1,10.1v79.2c0,5.6-4.5,10.1-10.1,10.1H63.5C57.9,143,53.4,138.5,53.4,132.9z"/>
	<path d="M234.2,202.6h-188c-6.6,0-12,5.4-12,12v16.3c0,6.6,5.4,12,12,12h188c6.6,0,12-5.4,12-12v-16.3
		C246.2,208,240.8,202.6,234.2,202.6z"/>
</g>
</svg>
