<?xml version="1.0" encoding="utf-8"?>
<!-- Generator: Adobe Illustrator 18.1.1, SVG Export Plug-In . SVG Version: 6.00 Build 0)  -->
<svg version="1.1" id="Layer_1" xmlns="http://www.w3.org/2000/svg" xmlns:xlink="http://www.w3.org/1999/xlink" x="0px" y="0px"
	 viewBox="0 0 324 288" enable-background="new 0 0 324 288" xml:space="preserve">
<g>
	<polygon points="57.3,117.2 69.7,138.3 90.8,116.8 70,104.2 	"/>
	<path d="M69.1,173.9c-2.7-2.8-6.3-4.3-9.8-4.3c-2.9,0-5.6,1.1-7.5,3l-25.2,25.7c-4.4,4.5-3.8,12.4,1.3,17.6l19.2,19.6l41.2-42.1
		L69.1,173.9z"/>
	<path d="M94.8,202.3l-39.1,39.9l41.5,42.4c4.5,4.6,11.4,5.2,15.2,1.3l25.2-25.7c3.8-3.9,3.2-10.9-1.3-15.5L94.8,202.3z"/>
	<polygon points="225.9,116.8 247,138.3 259.3,117.1 246.6,104.1 	"/>
	<polygon points="221.3,119.6 174.4,167.4 174.4,113.9 174.2,112.8 142.3,112.8 142,113.9 142,167.1 95.5,119.6 94.6,119.1 
		72,142.1 72.5,143 142,213.9 142,215.1 174.4,215.1 174.4,214.2 244.2,143 244.7,142.1 222.2,119.1 	"/>
	<polygon points="150.2,80.3 166.1,80.3 158,48.2 	"/>
	<polygon points="143.3,108.5 173.1,108.5 167.1,84.7 149.2,84.7 	"/>
	<path d="M149.6,17.4c19.2,0.3,45.5,0.6,54.1,9.3c2.1,2.2,2.9,4,2.3,5.8c-2.7,8.5-33,13.1-43,14.7c-2.4,0.4-4,0.6-4.7,0.8l0.7,3
		c0.6-0.2,2.3-0.4,4.5-0.7c20.8-3.2,42.5-7.7,45.4-16.7c0.9-2.9-0.1-5.9-3-8.9c-9.4-9.6-35.3-9.9-56.1-10.2c-9-0.1-20-0.3-22-1.6
		c0.1-0.2,0.4-0.5,1.1-1.1c5.3-4.2,25.3-1.9,42.9,0c22.9,2.6,42.7,4.8,46.8-2.4c1.6-2.7,0.7-6.3-2.6-10.8l-2.4,1.8
		c1.7,2.3,3.5,5.5,2.4,7.5c-3.1,5.5-24.8,3.1-43.9,0.9c-19.9-2.2-38.8-4.3-45,0.6c-0.7,0.6-2.9,2.3-2.2,4.4
		C125.8,16.9,133.1,17.1,149.6,17.4z"/>
	<path d="M43.8,48.4C55.2,43,69.4,36.2,82.2,36.2c5.5,0,6.3,1.2,6.4,1.6C90,41.9,73.1,55,60.7,64.5C51.9,71.3,42.8,78.4,37.3,84
		l1.1,1.1l16.7,28.4L66.3,102L39.7,85.8c5.4-5.4,14.2-12.3,22.8-18.9c19.2-14.8,30.8-24.2,28.9-30c-1.1-3.3-5.8-3.7-9.3-3.7
		c-13.4,0-28,6.9-39.7,12.5c-8.9,4.2-17.3,8.2-20.1,6.4c-0.8-0.5-1.2-1.8-1.2-3.7c0-7.7,6.3-16.8,11.3-24c4.9-7.1,8.5-12.2,6.7-15.7
		c-1.3-2.5-4.7-2.8-7.1-2.8C13.9,5.9,1.7-1.9,1.6-2L0,0.6c0.5,0.3,13,8.3,32.1,8.3c3.5,0,4.3,0.8,4.4,1.2c0.9,1.9-3,7.5-6.5,12.5
		c-5.3,7.6-11.9,17.1-11.9,25.8c0,3,0.9,5.1,2.6,6.2C25,57.3,32.9,53.6,43.8,48.4z"/>
	<path d="M321.5,0.2c0,0.1-4.6,10.1-10.8,11c-2.7,0.4-5.4-1.1-8.1-4.3c-1.8-2.2-3.6-3.1-5.3-2.7c-1.8,0.4-3.2,2.2-4.1,5.4
		c-3.7,12.6-0.6,44.4,6.2,51.5c4.4,4.5,2.8,17.2-3,23.7c-4.9,5.5-11.4,5.4-18.3-0.4l-0.6,0.8l-27.2,16.7l11.2,11.4l15.2-26.1
		c4.4,3.5,8.2,4.8,11.4,4.8c5.1,0,8.7-3.1,10.5-5.1c7-7.9,8.5-22.2,2.9-27.9c-6.1-6.2-8.8-37.1-5.5-48.5c0.9-2.9,1.7-3.3,1.9-3.3
		c0.4-0.1,1.2,0.3,2.4,1.7c3.4,4.1,7,5.8,10.8,5.3c7.8-1.1,12.8-12.3,13-12.8L321.5,0.2z"/>
</g>
</svg>
