<?xml version="1.0" encoding="utf-8"?>
<!-- Generator: Adobe Illustrator 18.1.1, SVG Export Plug-In . SVG Version: 6.00 Build 0)  -->
<svg version="1.1" id="Layer_1" xmlns="http://www.w3.org/2000/svg" xmlns:xlink="http://www.w3.org/1999/xlink" x="0px" y="0px"
	 viewBox="0 0 324 288" enable-background="new 0 0 324 288" xml:space="preserve">
<g>
	<path d="M89.3,27.3C65.5,28.7,22.2,100,68.3,181c0,0,28.6,5.6,56.6-7C141,109.1,144.4,27.3,89.3,27.3z"/>
	<path d="M66.9,195c7.7,67.1,11.2,64.3,38.4,61.5c19.6-2.1,28.6-32.8,18.9-65C122.1,193.6,86.5,200.6,66.9,195z"/>
	<path d="M252.6,181c46.1-81,2.8-152.3-21-153.7c-55.2,0-51.7,81.7-35.6,146.7C223.9,186.6,252.6,181,252.6,181z"/>
	<path d="M196.7,191.5c-9.8,32.1-0.7,62.9,18.9,65c27.2,2.8,30.7,5.6,38.4-61.5C234.4,200.6,198.8,193.6,196.7,191.5z"/>
</g>
</svg>
