<?xml version="1.0" encoding="utf-8"?>
<!-- Generator: Adobe Illustrator 18.1.1, SVG Export Plug-In . SVG Version: 6.00 Build 0)  -->
<svg version="1.1" id="Layer_1" xmlns="http://www.w3.org/2000/svg" xmlns:xlink="http://www.w3.org/1999/xlink" x="0px" y="0px"
	 viewBox="0 0 324 288" enable-background="new 0 0 324 288" xml:space="preserve">
<g>
	<path fill="none" d="M228.7,72.4l12.1-16.1L126.9,170.3c0.9,0.3,1.9,0.7,2.7,1.3L228.7,72.4z"/>
	<path fill="none" d="M84.5,230.3l30.6-30.6c-0.9-0.4-1.7-0.9-2.5-1.5l-30.1,30.1C83.1,229,83.8,229.7,84.5,230.3z"/>
	<path fill="none" d="M109,194.9l-30.3,30.3c0.3,0.2,0.5,0.4,0.8,0.6c0.5,0.4,0.9,0.8,1.4,1.2l30.1-30.1c-0.2-0.2-0.4-0.3-0.5-0.5
		C109.9,196,109.4,195.5,109,194.9z"/>
	<path fill="none" d="M282.6,53c0.7,0.8,1.6,2,2.1,2c0.1,0,0.3,0,0.8-0.6c0.3-0.4,0.4-0.8,0.3-1.3c-0.4-1.7-2.9-3.5-4.2-4.3
		c-0.5,0.5-1,1-1.5,1.5C281,51,281.9,52,282.6,53z"/>
	<path fill="none" d="M106.6,190.5l-31.8,31.8c0.7,0.5,1.5,1.1,2.3,1.7l30.8-30.8C107.4,192.4,107,191.5,106.6,190.5z"/>
	<path fill="none" d="M268.8,71.1c0.5,0.1,1-0.3,1.6-0.9c0.4-0.4,0.4-0.8,0.3-1c-0.3-1.5-3.3-3.4-4.7-4l0.2-0.4
		c-0.5,0.5-1,1-1.4,1.5l0.1-0.1C265.9,68.2,267.4,70.9,268.8,71.1z"/>
	<path fill="none" d="M233,48c-1.1,3.7-7,18.8-9.4,20.4c-2.1,1.7-54,53.9-73.8,73.9l-0.9,0.9l-1-0.8c-7.5-5.6-14.1-8.4-20-8.4
		c-10.9,0-20.1,9-31.7,31.1l-0.3,0.6l-0.7,0.1C60.2,173.1,38,188,32.6,208c-4.4,16,2.6,34.7,18.1,48.7C66.1,269.3,76.4,277,89.3,277
		c8.2,0,17.6-3.1,29.6-9.9c17.6-15.5,19.3-33.5,20.3-44.2c0.6-6.5,1.1-11.2,4.9-11.9c2.1-0.9,22.9-10.4,27.7-26.5
		c2.3-7.8,0.5-16-5.3-24.5l-0.7-1l72.8-78.5l0.2-0.1c0.9-0.5,2-1.3,3.2-2c3.6-2.4,8.1-5.4,14.1-6.8c1.7-2.2,8.1-9.3,33.2-34.8
		c-3.7-4.4-17.5-18.4-24-24.9C259.7,16.6,234.1,44.1,233,48z M275.8,42.2c1.3,1.3,1.3,3.3,0,4.5c-1.3,1.3-3.3,1.3-4.5,0
		c-0.4-0.4-0.7-0.9-0.8-1.5L233.7,77l-99.1,99.1c0.6,0.8,1.1,1.7,1.5,2.5L256.2,58.6l1,1c0.8-0.1,1.7,0.1,2.4,0.8
		c1.1,1.1,1.1,2.8,0,3.9c-1.1,1.1-2.8,1.1-3.9,0c-0.4-0.4-0.7-0.9-0.8-1.5l-118,118c1.6,5.4,0.3,11.5-4,15.8
		c-4.3,4.3-10.4,5.6-15.8,4l-31.2,31.2c5,4.8,7.9,8.8,7,9.9c-1.2,1.5-9.3-3.1-17.9-10.3c-8.7-7.2-14.7-14.2-13.4-15.7
		c0.9-1.1,5.7,1.2,11.7,5.5l32.8-32.8c-1-5,0.5-10.4,4.4-14.3c3.9-3.9,9.3-5.3,14.3-4.4l119-119c-0.4-0.1-0.7-0.3-1-0.6
		c-1.1-1.1-1.1-2.8,0-3.9s2.8-1.1,3.9,0c0.4,0.4,0.7,1,0.8,1.5L258,33.5c-0.6-0.1-1.2-0.4-1.7-0.9c-1.3-1.3-1.3-3.3,0-4.5
		c1.3-1.3,3.3-1.3,4.5,0c1.2,1.2,1.2,3,0.2,4.2l0.2,0.1l-31.1,41.4l-98.9,98.9c0.5,0.4,1.1,0.9,1.6,1.4c0.2,0.2,0.3,0.4,0.5,0.5
		l99-99l39-33.7l0.1,0.2C272.8,41,274.7,41.1,275.8,42.2z"/>
	<path fill="none" d="M233.2,32.5c-0.1,0-0.5,0-1,0.6c-0.3,0.4-0.4,0.8-0.3,1.2c0.3,1.6,2.6,3.5,4,4.5c0.6-0.7,1.2-1.4,1.8-2.1
		c-0.1-0.1-0.1-0.1-0.2-0.2C236.3,34.9,234.5,32.5,233.2,32.5z"/>
	<path fill="none" d="M248.9,16.4c-0.5,0-1,0.3-1.6,0.9c-0.4,0.4-0.4,0.8-0.3,1c0.3,1.3,2.4,2.8,4,3.6c0.5-0.5,1-1,1.5-1.6
		C251.3,18.6,250,16.5,248.9,16.4z"/>
	<path d="M293.1,36.9l-0.7-1c-2.6-3.8-25-26.2-26-27.2L265.7,8l-0.9,0.4c-1.1,0.5-5.6,4.8-11,10.5c0.3,0.5,0.5,0.9,0.8,1.4l-1.7,1.1
		c-0.2-0.3-0.3-0.6-0.5-0.9c-0.5,0.5-1,1-1.5,1.6c0.3,0.2,0.6,0.3,0.8,0.4l-0.8,1.8c-0.2-0.1-0.7-0.3-1.3-0.7
		c-3.6,3.9-7.3,8-10.4,11.7c0,0,0.1,0.1,0.1,0.1c0.3,0.4,0.6,0.8,0.9,1.2l-1.5,1.3c-0.3-0.3-0.5-0.7-0.8-1c-0.6,0.7-1.2,1.5-1.8,2.1
		c0.3,0.2,0.6,0.4,0.8,0.5l-1,1.7c-0.1-0.1-0.5-0.3-1-0.7c-2.5,3.1-4.2,5.6-4.6,6.7c-1.5,5.1-6.8,17.5-8.2,18.8
		c-1.7,1.1-59.4,59.3-73.4,73.3c-7.6-5.5-14.4-8.2-20.7-8.2c-14.9,0-25.2,15.4-34,32.1c-45.6,9.6-60,29.2-64.1,44.1
		c-4.7,17.1,2.6,36.9,19,51.8c16,13.1,26.7,21,40.6,21c0,0,0,0,0,0c8.8,0,18.7-3.3,31.2-10.4l0.3-0.2c18.6-16.3,20.3-35.1,21.4-46.3
		c0.5-5,0.9-9,2.5-9.2l0.2,0l0.2-0.1c1-0.4,24.2-10.2,29.6-28.5c2.5-8.4,0.8-17.2-5-26.1l70.8-76.4c1-0.6,2-1.3,3.1-2
		c3.5-2.4,7.9-5.3,13.5-6.5l1-0.2l0.1-0.7c0.5-0.7,2.4-2.8,5.1-5.7c-0.1-0.1-0.2-0.3-0.2-0.4l1.6-1c0.5-0.5,0.9-1,1.4-1.5l0.7-1.4
		c0.1,0,0.2,0.1,0.5,0.2c3.4-3.5,7.3-7.6,11.4-11.8c0,0-0.1-0.1-0.1-0.1l1.1-1.7c0.2,0.1,0.3,0.2,0.5,0.4c0.5-0.5,1-1,1.5-1.5
		c-0.1-0.1-0.3-0.2-0.4-0.2l1-1.7c0.1,0.1,0.4,0.2,0.8,0.5c3.3-3.4,6.5-6.6,9.3-9.5L293.1,36.9z M256,71.4c-6,1.4-10.5,4.4-14.1,6.8
		c-1.1,0.8-2.2,1.5-3.2,2l-0.2,0.1l-72.8,78.5l0.7,1c5.8,8.5,7.6,16.8,5.3,24.5c-4.8,16.2-25.7,25.6-27.7,26.5
		c-3.8,0.6-4.3,5.4-4.9,11.9c-1,10.8-2.7,28.7-20.3,44.2c-12,6.8-21.4,9.9-29.6,9.9c-12.9,0-23.2-7.7-38.6-20.3
		C35.1,242.6,28.2,224,32.6,208c5.5-19.9,27.6-34.9,62.5-42.1l0.7-0.1l0.3-0.6c11.6-22.1,20.8-31.1,31.7-31.1c5.9,0,12.5,2.7,20,8.4
		l1,0.8l0.9-0.9c19.8-20,71.7-72.2,73.8-73.9c2.4-1.6,8.3-16.7,9.4-20.4c1.1-3.9,26.7-31.3,32.2-36.2c6.4,6.5,20.2,20.4,24,24.9
		C264.1,62.1,257.7,69.2,256,71.4z"/>
	<path d="M132.9,196.5c4.3-4.3,5.6-10.4,4-15.8l-19.8,19.8C122.5,202.1,128.6,200.8,132.9,196.5z"/>
	<path d="M110.4,174c-3.9,3.9-5.3,9.3-4.4,14.3l18.7-18.7C119.7,168.7,114.3,170.1,110.4,174z"/>
	<path d="M110.4,196.5c0.2,0.2,0.4,0.3,0.5,0.5l22.5-22.5c-0.2-0.2-0.3-0.4-0.5-0.5c-0.5-0.5-1-0.9-1.6-1.4L109,194.9
		C109.4,195.5,109.9,196,110.4,196.5z"/>
	<path d="M129.6,171.5c-0.9-0.5-1.8-0.9-2.7-1.3l-20.3,20.3c0.3,0.9,0.7,1.9,1.3,2.7L129.6,171.5z"/>
	<path d="M115,199.7l21.1-21.1c-0.4-0.9-0.9-1.7-1.5-2.5l-22.2,22.2C113.3,198.9,114.2,199.3,115,199.7z"/>
	<path d="M240.8,56.3l4.1-5.5c-0.4,0.1-0.9,0-1.3-0.1l-119,119c0.7,0.1,1.5,0.4,2.2,0.6L240.8,56.3z"/>
	<path d="M106.6,190.5c-0.3-0.7-0.5-1.5-0.6-2.2l-32.8,32.8c0.5,0.4,1.1,0.8,1.6,1.2L106.6,190.5z"/>
	<path d="M126.9,170.3c-0.7-0.3-1.5-0.5-2.2-0.6L106,188.3c0.1,0.7,0.4,1.5,0.6,2.2L126.9,170.3z"/>
	<path d="M107.9,193.3L77.1,224c0.5,0.4,1,0.8,1.6,1.3l30.3-30.3C108.6,194.4,108.2,193.8,107.9,193.3z"/>
	<path d="M246.9,49.6l0.3,0.3l-6.4,6.4l-12.1,16.1l-99.1,99.1c0.6,0.3,1.1,0.7,1.7,1.1l98.9-98.9l31.1-41.4l-0.2-0.1
		c-0.1,0.1-0.1,0.2-0.2,0.3c-0.8,0.8-1.9,1.1-2.9,0.9l-10.7,14.2C247.4,48.3,247.3,49.1,246.9,49.6z"/>
	<path d="M107.9,193.3c0.3,0.6,0.7,1.1,1.1,1.7l22.3-22.3c-0.5-0.4-1.1-0.8-1.7-1.1L107.9,193.3z"/>
	<path d="M246.9,49.6c-0.1,0.1-0.2,0.3-0.3,0.4c-0.4,0.4-1,0.7-1.6,0.8l-4.1,5.5l6.4-6.4L246.9,49.6z"/>
	<path d="M82.4,228.4l30.1-30.1c-0.5-0.4-1.1-0.8-1.6-1.3l-30.1,30.1C81.4,227.5,81.9,228,82.4,228.4z"/>
	<path d="M232.4,75.6l-99,99c0.5,0.5,0.9,1,1.3,1.6L233.7,77l36.7-31.7c-0.3-1.1,0-2.2,0.8-3.1c0.1-0.1,0.2-0.1,0.3-0.2l-0.1-0.2
		L232.4,75.6z"/>
	<path d="M110.9,197c0.5,0.5,1,0.9,1.6,1.3l22.2-22.2c-0.4-0.5-0.8-1.1-1.3-1.6L110.9,197z"/>
	<path d="M84.5,230.3c0.5,0.5,1,0.9,1.4,1.4l31.2-31.2c-0.7-0.2-1.4-0.5-2-0.8L84.5,230.3z"/>
	<path d="M254.9,62.7c-0.1-0.9,0.1-1.8,0.8-2.4c0.4-0.4,1-0.7,1.5-0.8l-1-1L136.1,178.7c0.3,0.7,0.6,1.3,0.8,2L254.9,62.7z"/>
	<path d="M117.1,200.5l19.8-19.8c-0.2-0.7-0.5-1.4-0.8-2L115,199.7C115.7,200,116.4,200.3,117.1,200.5z"/>
	<path d="M261.1,32.3c1-1.3,0.9-3.1-0.2-4.2c-1.3-1.3-3.3-1.3-4.5,0c-1.3,1.3-1.3,3.3,0,4.5c0.5,0.5,1.1,0.8,1.7,0.9l1.7-2.2
		L261.1,32.3z"/>
	<path d="M260.9,32.6c0.1-0.1,0.2-0.2,0.2-0.3l-1.4-1.1l-1.7,2.2C259,33.7,260.1,33.4,260.9,32.6z"/>
	<path d="M246.3,49l1-1.4c-0.1-0.6-0.3-1.1-0.8-1.5c-1.1-1.1-2.8-1.1-3.9,0s-1.1,2.8,0,3.9c0.3,0.3,0.6,0.5,1,0.6l2.2-2.2L246.3,49z
		"/>
	<path d="M245,50.8l1.3-1.8l-0.5-0.5l-2.2,2.2C244.1,50.8,244.5,50.9,245,50.8z"/>
	<path d="M246.9,49.6c0.4-0.6,0.5-1.3,0.4-2l-1,1.4L246.9,49.6z"/>
	<path d="M246.9,49.6l-0.6-0.6l-1.3,1.8c0.6-0.1,1.2-0.3,1.6-0.8C246.7,49.9,246.8,49.8,246.9,49.6z"/>
	<path d="M270.5,45.3c0.1,0.5,0.4,1.1,0.8,1.5c1.3,1.3,3.3,1.3,4.5,0c1.3-1.3,1.3-3.3,0-4.5c-1.2-1.2-3-1.2-4.3-0.2l1.2,1.3
		L270.5,45.3z"/>
	<path d="M270.5,45.3l2.2-1.9l-1.2-1.3c-0.1,0.1-0.2,0.1-0.3,0.2C270.5,43.1,270.2,44.2,270.5,45.3z"/>
	<path d="M254.9,62.7c0.1,0.5,0.3,1.1,0.8,1.5c1.1,1.1,2.8,1.1,3.9,0c1.1-1.1,1.1-2.8,0-3.9c-0.7-0.7-1.6-0.9-2.4-0.8l0.5,0.5
		L254.9,62.7z"/>
	<path d="M254.9,62.7l2.7-2.7l-0.5-0.5c-0.6,0.1-1.1,0.3-1.5,0.8C255,60.9,254.8,61.8,254.9,62.7z"/>
	<path d="M285.7,53c0.1,0.5,0,0.9-0.3,1.3c-0.5,0.6-0.7,0.7-0.8,0.6c-0.5,0-1.4-1.2-2.1-2c-0.7-0.9-1.6-1.9-2.6-2.7
		c-0.5,0.5-0.9,1-1.4,1.4c0.9,0.6,1.6,1.6,2.4,2.5c1.1,1.4,2.2,2.8,3.6,2.8c0,0,0,0,0,0c0.9,0,1.6-0.5,2.3-1.4
		c0.7-0.9,0.9-1.9,0.7-2.9c-0.5-2.4-3.3-4.4-4.7-5.4c-0.5,0.5-1,1-1.4,1.5C282.8,49.5,285.4,51.4,285.7,53z"/>
	<path d="M281.2,48.5c0.1,0.1,0.2,0.1,0.4,0.2c0.5-0.5,1-1,1.4-1.5c-0.4-0.3-0.7-0.4-0.8-0.5L281.2,48.5z"/>
	<path d="M279.6,49.9l-1.1,1.7c0,0,0.1,0.1,0.1,0.1c0.5-0.5,0.9-1,1.4-1.4C279.9,50.1,279.7,50,279.6,49.9z"/>
	<path d="M266,65.1c1.4,0.7,4.4,2.5,4.7,4c0.1,0.2,0.1,0.6-0.3,1c-0.6,0.7-1.1,1-1.6,0.9c-1.3-0.1-2.8-2.9-4-4.9l-0.1,0.1
		c-0.5,0.5-0.9,1-1.4,1.4c1.4,2.5,3,5.2,5.2,5.4c0.1,0,0.2,0,0.3,0c1,0,2-0.5,3-1.6c0.7-0.8,1-1.8,0.8-2.8c-0.5-2.5-4.1-4.5-5.4-5.2
		c-0.4,0.4-0.8,0.8-1.1,1.2L266,65.1z"/>
	<path d="M266.1,64.7c0.4-0.4,0.7-0.8,1.1-1.2c-0.2-0.1-0.4-0.2-0.5-0.2L266.1,64.7z"/>
	<path d="M263.1,67.2c0.1,0.1,0.2,0.3,0.2,0.4c0.4-0.5,0.9-0.9,1.4-1.4L263.1,67.2z"/>
	<path d="M231.9,34.4c-0.1-0.5,0-0.9,0.3-1.2c0.5-0.6,0.9-0.6,1-0.6c1.3,0,3.2,2.4,4.4,4c0.1,0.1,0.1,0.1,0.2,0.2
		c0.4-0.5,0.9-1,1.3-1.6c-1.6-2.1-3.7-4.7-5.9-4.7c0,0,0,0,0,0c-1,0-1.8,0.5-2.6,1.4c-0.6,0.8-0.9,1.8-0.7,2.8
		c0.5,2.4,3.2,4.6,4.7,5.6c0.4-0.5,0.8-1,1.3-1.6C234.5,37.9,232.2,36,231.9,34.4z"/>
	<path d="M236.7,39.4c-0.2-0.1-0.5-0.3-0.8-0.5c-0.4,0.5-0.9,1.1-1.3,1.6c0.5,0.3,0.9,0.6,1,0.7L236.7,39.4z"/>
	<path d="M238.6,37.8l1.5-1.3c-0.3-0.3-0.6-0.7-0.9-1.2c0,0-0.1-0.1-0.1-0.1c-0.5,0.5-0.9,1-1.3,1.6C238,37.1,238.3,37.5,238.6,37.8
		z"/>
	<path d="M247,18.4c-0.1-0.2-0.1-0.6,0.3-1c0.6-0.7,1.1-1,1.6-0.9c1.1,0.1,2.4,2.1,3.5,4c0.5-0.5,1-1,1.4-1.5
		c-1.3-2.2-2.7-4.3-4.7-4.5c-1.1-0.1-2.3,0.4-3.3,1.6c-0.7,0.8-1,1.8-0.8,2.8c0.4,2,2.9,3.8,4.5,4.7c0.5-0.5,0.9-1,1.4-1.5
		C249.4,21.1,247.2,19.6,247,18.4z"/>
	<path d="M252.9,21.3l1.7-1.1c-0.2-0.4-0.5-0.9-0.8-1.4c-0.5,0.5-1,1-1.4,1.5C252.5,20.7,252.7,21,252.9,21.3z"/>
	<path d="M251.7,22.4c-0.2-0.1-0.5-0.2-0.8-0.4c-0.5,0.5-0.9,1-1.4,1.5c0.7,0.4,1.2,0.6,1.3,0.7L251.7,22.4z"/>
	<path d="M81.4,233.4l3.1-3.1c-0.7-0.6-1.4-1.3-2.1-1.9l-3,3L78,230l2.9-2.9c-0.5-0.4-0.9-0.8-1.4-1.2c-0.3-0.2-0.5-0.4-0.8-0.6
		L76,228l-1.4-1.4l2.5-2.5c-0.8-0.6-1.5-1.2-2.3-1.7l-2.5,2.5l-1.4-1.4l2.3-2.3c-6-4.3-10.7-6.6-11.7-5.5
		c-1.2,1.5,4.8,8.5,13.4,15.7c8.7,7.2,16.7,11.8,17.9,10.3c0.9-1.1-2-5.1-7-9.9l-3.1,3.1L81.4,233.4z"/>
	<path d="M72.4,224.8l2.5-2.5c-0.6-0.4-1.1-0.8-1.6-1.2l-2.3,2.3L72.4,224.8z"/>
	<path d="M74.6,226.6L76,228l2.7-2.7c-0.5-0.4-1.1-0.8-1.6-1.3L74.6,226.6z"/>
	<path d="M78,230l1.4,1.4l3-3c-0.5-0.4-1-0.9-1.5-1.3L78,230z"/>
	<path d="M81.4,233.4l1.4,1.4l3.1-3.1c-0.5-0.5-0.9-0.9-1.4-1.4L81.4,233.4z"/>
</g>
</svg>
